HIERARCHY
ROOT RootJoint
{
    OFFSET   0.000000   0.000000   0.000000
    CHANNELS 6 Xposition Yposition Zposition Xrotation Yrotation Zrotation
    JOINT pelvis_lowerback
    {
        OFFSET   0.000000   0.093605   0.000000
        CHANNELS 3 Xrotation Yrotation Zrotation
        JOINT lowerback_torso
        {
            OFFSET   0.000000   0.100000   0.000000
            CHANNELS 3 Xrotation Yrotation Zrotation
            JOINT torso_head
            {
                OFFSET   0.000000   0.282350   0.000000
                CHANNELS 3 Xrotation Yrotation Zrotation
                End Site
                {
                    OFFSET   0.000000   0.192650   0.000000
                }
            }
            JOINT rTorso_Clavicle
            {
                OFFSET  -0.001000   0.157500   0.000000
                CHANNELS 3 Xrotation Yrotation Zrotation
                JOINT rShoulder
                {
                    OFFSET  -0.117647   0.000000   0.000000
                    CHANNELS 3 Xrotation Yrotation Zrotation
                    JOINT rElbow
                    {
                        OFFSET  -0.245000   0.000000   0.000000
                        CHANNELS 3 Xrotation Yrotation Zrotation
                        JOINT rWrist
                        {
                            OFFSET  -0.240000   0.000000   0.000000
                            CHANNELS 3 Xrotation Yrotation Zrotation
                            End Site
                            {
                                OFFSET  -0.116353  -0.002500   0.000000
                            }
                        }
                    }
                }
            }
            JOINT lTorso_Clavicle
            {
                OFFSET   0.001000   0.157500   0.000000
                CHANNELS 3 Xrotation Yrotation Zrotation
                JOINT lShoulder
                {
                    OFFSET   0.117647   0.000000   0.000000
                    CHANNELS 3 Xrotation Yrotation Zrotation
                    JOINT lElbow
                    {
                        OFFSET   0.245000   0.000000   0.000000
                        CHANNELS 3 Xrotation Yrotation Zrotation
                        JOINT lWrist
                        {
                            OFFSET   0.240000   0.000000   0.000000
                            CHANNELS 3 Xrotation Yrotation Zrotation
                            End Site
                            {
                                OFFSET   0.116353  -0.002500   0.000000
                            }
                        }
                    }
                }
            }
        }
    }
    JOINT rHip
    {
        OFFSET  -0.100000  -0.051395   0.000000
        CHANNELS 3 Xrotation Yrotation Zrotation
        JOINT rKnee
        {
            OFFSET   0.000000  -0.410000   0.000000
            CHANNELS 3 Xrotation Yrotation Zrotation
            JOINT rAnkle
            {
                OFFSET   0.000000  -0.390000   0.000000
                CHANNELS 3 Xrotation Yrotation Zrotation
                JOINT rToeJoint
                {
                    OFFSET   0.000000  -0.050000   0.130000
                    CHANNELS 3 Xrotation Yrotation Zrotation
                    End Site
                    {
                        OFFSET  -0.010000   0.002000   0.060000
                    }
                }
            }
        }
    }
    JOINT lHip
    {
        OFFSET   0.100000  -0.051395   0.000000
        CHANNELS 3 Xrotation Yrotation Zrotation
        JOINT lKnee
        {
            OFFSET   0.000000  -0.410000   0.000000
            CHANNELS 3 Xrotation Yrotation Zrotation
            JOINT lAnkle
            {
                OFFSET   0.000000  -0.390000   0.000000
                CHANNELS 3 Xrotation Yrotation Zrotation
                JOINT lToeJoint
                {
                    OFFSET   0.000000  -0.050000   0.130000
                    CHANNELS 3 Xrotation Yrotation Zrotation
                    End Site
                    {
                        OFFSET   0.010000   0.002000   0.060000
                    }
                }
            }
        }
    }
}
MOTION
Frames: 8
Frame Time:   0.008333
 -2.447126   0.566394   4.316892  -5.096636   0.688319   6.575929   5.782708   1.784715  -3.994772   3.330483  -2.055964   0.828201   6.269974   0.355045  -1.383832   4.365275  -0.557282   9.025282  -2.935241  -0.817737  32.265825  -0.000542  49.061173   0.000596   4.518542   3.277431  -3.516028   4.549848  -1.438110 -10.654045  -2.564325  -5.951351 -38.589986   0.000338 -39.475449   0.002180   5.426349  -2.598390   0.029590 -49.713318  -0.202186  -4.446202 114.373091  -0.002389   0.003306 -59.821118  -8.192162  -7.045110  -3.143327  -0.001029  -0.000566 -27.268113   7.955474   4.548816 115.001423  -0.000408   0.009098 -52.420141  -0.266445  -5.979833 -24.771916   0.000070  -0.000768
 -2.447973   0.563038   4.317897  -5.082894   0.634508   6.489463   5.943747   1.834605  -3.935295   3.308839  -2.068798   0.818853   6.185695   0.319722  -1.363359   4.296298  -0.649199   8.962355  -3.061851  -1.109125  32.279551  -0.000662  49.125975   0.000715   4.464982   3.302189  -3.559228   4.470226  -1.436261 -10.672152  -2.818644  -5.686931 -38.721852   0.000411 -39.292541   0.002379   5.373409  -2.563192   0.063024 -49.772564  -0.384067  -4.278951 114.849144  -0.002352   0.003194 -60.610224  -8.091256  -7.406894  -2.252744   0.000298  -0.000183 -27.783171   7.835693   4.836573 116.219106  -0.000452   0.008813 -51.814955  -0.184175  -6.056082 -23.940280  -0.001135   0.001127
 -2.448741   0.559825   4.318934  -5.103169   0.586782   6.414021   6.121896   1.879948  -3.883799   3.313956  -2.084652   0.811003   6.113322   0.286474  -1.339295   4.230034  -0.745148   8.890311  -3.183063  -1.389289  32.280518  -0.000740  49.185769   0.000778   4.410296   3.320666  -3.650191   4.391719  -1.433621 -10.685355  -3.058840  -5.437724 -38.839231   0.000453 -39.120222   0.002448   5.317837  -2.520776   0.123329 -49.842102  -0.572933  -4.141820 115.368340  -0.002434   0.003120 -61.173996  -8.030949  -7.753515  -1.444074   0.001389  -0.000160 -28.255157   7.713802   5.099765 117.400099  -0.000459   0.008448 -51.223715  -0.097935  -6.119984 -22.916251  -0.002352   0.003063
 -2.449440   0.556781   4.319984  -5.124545   0.532072   6.344228   6.292408   1.924546  -3.836639   3.326895  -2.098706   0.802138   6.048610   0.255659  -1.316260   4.168938  -0.840132   8.816375  -3.296190  -1.654887  32.274919  -0.000779  49.240111   0.000799   4.357653   3.330512  -3.755624   4.320634  -1.426704 -10.696176  -3.280783  -5.201211 -38.945403   0.000463 -38.957939   0.002421   5.264392  -2.472751   0.190630 -49.895283  -0.746878  -4.012359 115.857526  -0.002452   0.002984 -61.703129  -7.968250  -8.078581  -1.130904   0.001535  -0.000141 -28.701056   7.596311   5.347085 118.515699  -0.000515   0.008015 -50.658558  -0.018194  -6.177627 -21.836879  -0.003311   0.004585
 -2.450075   0.553904   4.321041  -5.141864   0.471700   6.279326   6.453048   1.966772  -3.793995   3.342076  -2.111335   0.792396   5.989036   0.226923  -1.294646   4.112564  -0.932260   8.743348  -3.401517  -1.905374  32.266039  -0.000790  49.289942   0.000792   4.306962   3.334219  -3.864698   4.256618  -1.416578 -10.704886  -3.485588  -4.977161 -39.042251   0.000449 -38.805261   0.002325   5.213097  -2.420218   0.258062 -49.938480  -0.906771  -3.889996 116.317188  -0.002422   0.002806 -62.200059  -7.903563  -8.382650  -0.874858   0.001558  -0.000124 -29.120688   7.483531   5.577952 119.558686  -0.000607   0.007525 -50.123342   0.055399  -6.230479 -20.759539  -0.003976   0.005648
 -2.450649   0.551194   4.322102  -5.153348   0.407378   6.217828   6.603539   2.006150  -3.755039   3.357506  -2.123060   0.782399   5.933660   0.200070  -1.274451   4.060306  -1.020467   8.672703  -3.499646  -2.140817  32.255457  -0.000779  49.335903   0.000768   4.258166   3.334094  -3.973558   4.198411  -1.404746 -10.711930  -3.675052  -4.765759 -39.130949   0.000418 -38.661931   0.002185   5.163854  -2.365110   0.323787 -49.974341  -1.054549  -3.773974 116.747933  -0.002354   0.002603 -62.667254  -7.837568  -8.666727  -0.664843   0.001502  -0.000109 -29.514937   7.375347   5.793484 120.529395  -0.000711   0.006997 -49.618649   0.123948  -6.279136 -19.709547  -0.004385   0.006315
 -2.451166   0.548645   4.323162  -5.158294   0.340396   6.158701   6.744206   2.042584  -3.719165   3.372318  -2.134207   0.772621   5.882018   0.174968  -1.255596   4.011638  -1.104134   8.605180  -3.591170  -2.361557  32.244097  -0.000754  49.378497   0.000732   4.211236   3.331819  -4.080360   4.144865  -1.392364 -10.717569  -3.850838  -4.567026 -39.212375   0.000377 -38.527689   0.002018   5.116570  -2.309435   0.387340 -50.004435  -1.191587  -3.663763 117.150651  -0.002260   0.002385 -63.106986  -7.770846  -8.931969  -0.491900   0.001402  -0.000095 -29.885128   7.271743   5.994752 121.430739  -0.000813   0.006451 -49.143803   0.188226  -6.323988 -18.698216  -0.004589   0.006662
 -2.451630   0.546290   4.324084  -5.139640   0.310860   6.036855   6.913653   2.076141  -3.618624   3.337810  -2.179769   0.777300   5.814499   0.138462  -1.184607   3.946954  -1.203029   8.521430  -3.704038  -2.595964  32.263938  -0.000968  49.489718   0.000960   4.148842   3.298045  -4.175686   4.105281  -1.362493 -10.707950  -4.046592  -4.330348 -39.332297   0.000332 -38.460053   0.001774   5.052974  -2.256739   0.432992 -50.053424  -1.404423  -3.554942 117.501469  -0.002169   0.002140 -63.491329  -7.689771  -9.165739  -0.353169   0.001252  -0.000081 -30.383155   7.164805   6.239218 122.333620  -0.000443   0.005695 -48.819925   0.330644  -6.279874 -17.157839  -0.005799   0.008640
